<svg width="64" height="64" viewBox="0 0 64 64" fill="none" xmlns="http://www.w3.org/2000/svg">
  <!-- Rounded rectangle background -->
  <rect width="64" height="64" rx="12" fill="#7C3AED"/>

  <!-- U letter -->
  <path d="M32 50C28.5 50 25.75 49.1 23.75 47.3C21.8 45.5 20.8 43 20.8 39.8V16H27.5V39.7C27.5 41.1 27.85 42.15 28.55 42.85C29.3 43.55 30.4 43.9 31.85 43.9C33.25 43.9 34.3 43.55 35 42.85C35.7 42.15 36.05 41.1 36.05 39.7V16H42.75V39.8C42.75 42.95 41.75 45.45 39.75 47.3C37.8 49.1 35.1 50 32 50Z" fill="white"/>
</svg>
