<svg width="149" height="64" viewBox="0 0 149 64" fill="none" xmlns="http://www.w3.org/2000/svg">
<path d="M23.4002 51.48L19.3682 44.856L20.4842 45.324C20.3882 45.324 20.2802 45.324 20.1602 45.324C20.0402 45.348 19.9202 45.36 19.8002 45.36C18.0722 45.36 16.5602 45.036 15.2642 44.388C13.9682 43.716 12.9602 42.78 12.2402 41.58C11.5202 40.38 11.1602 39 11.1602 37.44V26.28C11.1602 24.672 11.5202 23.28 12.2402 22.104C12.9602 20.928 13.9682 20.016 15.2642 19.368C16.5602 18.696 18.0722 18.36 19.8002 18.36C21.5282 18.36 23.0402 18.696 24.3362 19.368C25.6322 20.016 26.6402 20.94 27.3602 22.14C28.0802 23.316 28.4402 24.696 28.4402 26.28V37.44C28.4402 39 28.1042 40.38 27.4322 41.58C26.7842 42.756 25.8362 43.656 24.5882 44.28L29.0162 51.48H23.4002ZM19.8002 40.644C20.9282 40.644 21.7442 40.368 22.2482 39.816C22.7762 39.264 23.0402 38.472 23.0402 37.44V26.28C23.0402 25.224 22.7642 24.42 22.2122 23.868C21.6602 23.316 20.8562 23.04 19.8002 23.04C18.7682 23.04 17.9642 23.316 17.3882 23.868C16.8362 24.42 16.5602 25.224 16.5602 26.28V37.44C16.5602 38.472 16.8242 39.264 17.3522 39.816C17.8802 40.368 18.6962 40.644 19.8002 40.644Z" fill="#7C3AED"/>
<path d="M93.9004 45L100.344 18.72H107.184L113.7 45H108.192L106.932 39.06H100.668L99.4084 45H93.9004ZM101.568 34.74H105.996L104.736 28.404C104.568 27.492 104.388 26.592 104.196 25.704C104.028 24.792 103.896 24.084 103.8 23.58C103.704 24.084 103.572 24.78 103.404 25.668C103.26 26.556 103.092 27.456 102.9 28.368L101.568 34.74Z" fill="#7C3AED"/>
<path d="M119.34 45V18.72H127.8C129.672 18.72 131.292 19.044 132.66 19.692C134.028 20.34 135.084 21.264 135.828 22.464C136.596 23.664 136.98 25.08 136.98 26.712C136.98 28.416 136.56 29.94 135.72 31.284C134.904 32.628 133.788 33.6 132.372 34.2L137.34 45H131.472L127.224 35.064H124.704V45H119.34ZM124.704 30.384H127.8C129 30.384 129.924 30.084 130.572 29.484C131.244 28.884 131.58 28.044 131.58 26.964C131.58 25.836 131.244 24.96 130.572 24.336C129.924 23.712 129 23.4 127.8 23.4H124.704V30.384Z" fill="#7C3AED"/>
<rect x="39.5" y="9.5" width="45" height="45" rx="8.5" fill="#7C3AED" stroke="#7C3AED" stroke-width="9"/>
<path d="M62.5 47C59.5708 47 57.2486 46.2432 55.5333 44.7297C53.8444 43.2162 53 41.1477 53 38.5243V19H58.9375V38.4865C58.9375 39.6468 59.241 40.5423 59.8479 41.173C60.4813 41.7784 61.3653 42.0811 62.5 42.0811C63.6083 42.0811 64.4792 41.7784 65.1125 41.173C65.7458 40.5423 66.0625 39.6468 66.0625 38.4865V19H72V38.5243C72 41.1225 71.1424 43.191 69.4271 44.7297C67.7382 46.2432 65.4292 47 62.5 47Z" fill="white"/>
<line x1="2.5" y1="2" x2="2.5" y2="19" stroke="#121212" stroke-width="5"/>
<line y1="2.5" x2="18" y2="2.5" stroke="#121212" stroke-width="5"/>
<line y1="-2.5" x2="17" y2="-2.5" transform="matrix(0 -1 -1 0 0 62)" stroke="#121212" stroke-width="5"/>
<line y1="-2.5" x2="18" y2="-2.5" transform="matrix(1 0 0 -1 0 59)" stroke="#121212" stroke-width="5"/>
<line x1="146.5" y1="61" x2="146.5" y2="44" stroke="#121212" stroke-width="5"/>
<line x1="149" y1="60.5" x2="131" y2="60.5" stroke="#121212" stroke-width="5"/>
<line y1="-2.5" x2="17" y2="-2.5" transform="matrix(0 1 1 0 149 2)" stroke="#121212" stroke-width="5"/>
<line y1="-2.5" x2="18" y2="-2.5" transform="matrix(-1 0 0 1 149 5)" stroke="#121212" stroke-width="5"/>
</svg>
